<svg width="800" height="400" viewBox="0 0 800 400" xmlns="http://www.w3.org/2000/svg"><mask id="satori_om-id"><rect x="0" y="0" width="800" height="400" fill="#fff"/></mask><clipPath id="satori_cp-id-0"><rect x="-50" y="-100" width="900" height="600"/></clipPath><mask id="satori_om-id-0"><rect x="-50" y="-100" width="900" height="600" fill="#fff"/></mask><image x="-50" y="-100" width="900" height="600" href="data:image/svg+xml;utf8,%3Csvg  xmlns=%22http://www.w3.org/2000/svg%22 xlink=%22http://www.w3.org/1999/xlink%22 version=%221.1%22 width=%22900%22 height=%22600%22 viewBox=%220 0 900 600%22%3E%3Crect x=%220%22 y=%220%22 width=%22900%22 height=%22600%22 fill=%22white%22%3E%3C/rect%3E%3Cdefs%3E%3ClinearGradient id=%22grad1_0%22 x1=%2233.3%25%22 y1=%220%25%22 x2=%22100%25%22 y2=%22100%25%22%3E%3Cstop offset=%2220%25%22 stop-color=%22white%22 stop-opacity=%221%22%3E%3C/stop%3E%3Cstop offset=%2280%25%22 stop-color=%22white%22 stop-opacity=%221%22%3E%3C/stop%3E%3C/linearGradient%3E%3C/defs%3E%3Cdefs%3E%3ClinearGradient id=%22grad2_0%22 x1=%220%25%22 y1=%220%25%22 x2=%2266.7%25%22 y2=%22100%25%22%3E%3Cstop offset=%2220%25%22 stop-color=%22white%22 stop-opacity=%221%22%3E%3C/stop%3E%3Cstop offset=%2280%25%22 stop-color=%22white%22 stop-opacity=%221%22%3E%3C/stop%3E%3C/linearGradient%3E%3C/defs%3E%3Cg transform=%22translate(900, 0)%22%3E%3Cpath d=%22M0 297.5C-41.7 290.9 -83.4 284.4 -107.5 259.6C-131.6 234.8 -138.2 191.6 -167.6 167.6C-197 143.5 -249.4 138.6 -274.8 113.8C-300.3 89.1 -298.9 44.5 -297.5 0L0 0Z%22 fill=%22black%22%3E%3C/path%3E%3C/g%3E%3Cg transform=%22translate(0, 600)%22%3E%3Cpath d=%22M0 -297.5C26.3 -264.6 52.6 -231.7 92.2 -222.7C131.9 -213.6 184.8 -228.3 210.3 -210.3C235.9 -192.3 234 -141.5 243.9 -101C253.9 -60.5 275.7 -30.3 297.5 0L0 0Z%22 fill=%22black%22%3E%3C/path%3E%3C/g%3E%3C/svg%3E" preserveAspectRatio="none" clip-path="url(#satori_cp-id-0)" mask="url(#satori_om-id-0)"/><mask id="satori_om-id-0-0"><rect x="-50" y="-100" width="0" height="600" fill="#fff"/></mask><mask id="satori_om-id-0-1"><rect x="-50" y="-100" width="0" height="600" fill="#fff"/></mask><mask id="satori_om-id-0-1-0"><rect x="-50" y="-100" width="0" height="600" fill="#fff"/></mask><mask id="satori_om-id-0-1-0-0"><rect x="-50" y="-100" width="0" height="600" fill="#fff"/></mask><mask id="satori_om-id-0-1-0-1"><rect x="-50" y="-100" width="0" height="600" fill="#fff"/></mask><mask id="satori_om-id-0-2"><rect x="-50" y="-100" width="0" height="600" fill="#fff"/></mask><mask id="satori_om-id-0-2-0"><rect x="-50" y="-100" width="0" height="600" fill="#fff"/></mask><mask id="satori_om-id-0-2-0-0"><rect x="-50" y="-100" width="0" height="600" fill="#fff"/></mask><mask id="satori_om-id-0-2-0-1"><rect x="-50" y="-100" width="0" height="600" fill="#fff"/></mask><mask id="satori_om-id-0-3"><rect x="-50" y="-100" width="0" height="600" fill="#fff"/></mask><mask id="satori_om-id-0-3-0"><rect x="-50" y="-100" width="0" height="600" fill="#fff"/></mask><mask id="satori_om-id-0-4"><rect x="-50" y="-100" width="0" height="600" fill="#fff"/></mask><mask id="satori_om-id-0-4-0"><rect x="-50" y="-100" width="0" height="600" fill="#fff"/></mask><mask id="satori_om-id-1"><rect x="330" y="139" width="140" height="31" fill="#fff"/></mask><path fill="black" d="M332.8 156.2L332.8 156.2Q332.8 152.7 333.7 149.8Q334.6 146.9 336.3 144.4L336.3 144.4L338.2 144.4Q337.5 145.3 337.0 146.6Q336.4 148.0 335.9 149.6Q335.5 151.2 335.3 152.9Q335.0 154.6 335.0 156.2L335.0 156.2Q335.0 158.4 335.4 160.7Q335.9 162.9 336.6 164.9Q337.3 166.8 338.2 168.0L338.2 168.0L336.3 168.0Q334.6 165.6 333.7 162.6Q332.8 159.7 332.8 156.2ZM341.3 155.1L349.5 155.1L349.5 157.1L341.3 157.1L341.3 155.1ZM351.3 164.2L363.2 164.2L363.2 166.2L351.3 166.2L351.3 164.2ZM365.0 155.1L373.2 155.1L373.2 157.1L365.0 157.1L365.0 155.1ZM378.0 161.6L380.3 161.6L380.2 162.6Q380.0 163.7 379.7 164.9Q379.4 166.1 379.1 167.1Q378.7 168.2 378.5 168.8L378.5 168.8L376.8 168.8Q376.9 168.2 377.1 167.2Q377.3 166.3 377.5 165.1Q377.7 163.9 377.9 162.6L377.9 162.6L378.0 161.6ZM379.0 153.8L379.0 153.8Q378.3 153.8 377.8 153.3Q377.3 152.8 377.3 152.1L377.3 152.1Q377.3 151.5 377.8 151.0Q378.3 150.5 379.0 150.5L379.0 150.5Q379.7 150.5 380.2 151.0Q380.7 151.5 380.7 152.1L380.7 152.1Q380.7 152.6 380.4 153.0Q380.2 153.4 379.8 153.6Q379.5 153.8 379.0 153.8ZM389.0 156.2L389.0 156.2Q389.0 159.7 388.1 162.6Q387.2 165.6 385.5 168.0L385.5 168.0L383.6 168.0Q384.3 167.1 384.8 165.8Q385.4 164.4 385.8 162.9Q386.3 161.3 386.5 159.6Q386.8 157.9 386.8 156.2L386.8 156.2Q386.8 154.0 386.3 151.8Q385.9 149.5 385.2 147.5Q384.5 145.6 383.6 144.4L383.6 144.4L385.5 144.4Q387.2 146.9 388.1 149.8Q389.0 152.7 389.0 156.2ZM404.8 151.6L404.8 151.6Q405.6 151.6 406.2 151.9Q406.8 152.3 407.2 152.9Q407.5 153.5 407.5 154.3L407.5 154.3Q407.5 155.1 407.2 155.7Q406.8 156.3 406.2 156.7Q405.6 157.1 404.8 157.1L404.8 157.1Q404.0 157.1 403.4 156.7Q402.8 156.3 402.4 155.7Q402.0 155.1 402.0 154.3L402.0 154.3Q402.0 153.5 402.4 152.9Q402.8 152.3 403.4 151.9Q404.0 151.6 404.8 151.6ZM430.8 151.6L430.8 151.6Q431.6 151.6 432.2 151.9Q432.8 152.3 433.2 152.9Q433.5 153.5 433.5 154.3L433.5 154.3Q433.5 155.1 433.2 155.7Q432.8 156.3 432.2 156.7Q431.6 157.1 430.8 157.1L430.8 157.1Q430.0 157.1 429.4 156.7Q428.8 156.3 428.4 155.7Q428.0 155.1 428.0 154.3L428.0 154.3Q428.0 153.5 428.4 152.9Q428.8 152.3 429.4 151.9Q430.0 151.6 430.8 151.6ZM456.8 151.6L456.8 151.6Q457.6 151.6 458.2 151.9Q458.8 152.3 459.2 152.9Q459.5 153.5 459.5 154.3L459.5 154.3Q459.5 155.1 459.2 155.7Q458.8 156.3 458.2 156.7Q457.6 157.1 456.8 157.1L456.8 157.1Q456.0 157.1 455.4 156.7Q454.8 156.3 454.4 155.7Q454.0 155.1 454.0 154.3L454.0 154.3Q454.0 153.5 454.4 152.9Q454.8 152.3 455.4 151.9Q456.0 151.6 456.8 151.6Z "/><mask id="satori_om-id-2"><rect x="182" y="186" width="437" height="39" fill="#fff"/></mask><path fill="black" d="M201.4 200.4L196.6 200.4Q196.5 199.0 195.5 198.3Q194.4 197.5 192.7 197.5L192.7 197.5Q191.5 197.5 190.6 197.9Q189.8 198.2 189.4 198.8Q188.9 199.4 188.9 200.1L188.9 200.1Q188.9 200.8 189.2 201.2Q189.5 201.7 190 202.0Q190.5 202.4 191.2 202.6Q191.9 202.8 192.6 203.0L192.6 203.0L194.7 203.5Q196.2 203.9 197.5 204.4Q198.8 205.0 199.7 205.8Q200.6 206.6 201.2 207.8Q201.7 208.9 201.7 210.4L201.7 210.4Q201.7 212.5 200.6 214.1Q199.5 215.6 197.5 216.5Q195.5 217.3 192.6 217.3L192.6 217.3Q189.8 217.3 187.7 216.5Q185.7 215.6 184.5 213.9Q183.3 212.2 183.3 209.7L183.3 209.7L188.0 209.7Q188.1 210.9 188.7 211.6Q189.3 212.4 190.3 212.8Q191.3 213.2 192.6 213.2L192.6 213.2Q193.8 213.2 194.8 212.8Q195.7 212.5 196.2 211.8Q196.7 211.2 196.7 210.3L196.7 210.3Q196.7 209.6 196.3 209.0Q195.8 208.5 194.9 208.1Q194.0 207.7 192.8 207.4L192.8 207.4L190.2 206.8Q187.3 206.1 185.6 204.6Q183.9 203.0 183.9 200.5L183.9 200.5Q183.9 198.3 185.0 196.8Q186.2 195.2 188.2 194.3Q190.2 193.4 192.7 193.4L192.7 193.4Q195.3 193.4 197.2 194.3Q199.2 195.2 200.3 196.8Q201.3 198.3 201.4 200.4L201.4 200.4ZM212.8 217.3L212.8 217.3Q210.1 217.3 208.2 216.2Q206.3 215.1 205.2 213.1Q204.2 211.0 204.2 208.3L204.2 208.3Q204.2 205.6 205.2 203.6Q206.3 201.6 208.2 200.4Q210.1 199.3 212.8 199.3L212.8 199.3Q215.4 199.3 217.3 200.4Q219.3 201.6 220.3 203.6Q221.4 205.6 221.4 208.3L221.4 208.3Q221.4 211.0 220.3 213.1Q219.3 215.1 217.3 216.2Q215.4 217.3 212.8 217.3ZM212.8 213.6L212.8 213.6Q214 213.6 214.8 212.9Q215.6 212.2 216.0 211.0Q216.4 209.8 216.4 208.3L216.4 208.3Q216.4 206.8 216.0 205.6Q215.6 204.4 214.8 203.7Q214 203.0 212.8 203.0L212.8 203.0Q211.6 203.0 210.8 203.7Q209.9 204.4 209.5 205.6Q209.1 206.8 209.1 208.3L209.1 208.3Q209.1 209.8 209.5 211.0Q209.9 212.2 210.8 212.9Q211.6 213.6 212.8 213.6ZM229.4 217L224.5 217L224.5 199.5L229.2 199.5L229.2 202.6L229.4 202.6Q229.9 201.0 231 200.1Q232.1 199.3 233.6 199.3L233.6 199.3Q234.0 199.3 234.4 199.3Q234.8 199.4 235.1 199.5L235.1 199.5L235.1 203.8Q234.8 203.7 234.2 203.6Q233.6 203.5 233.1 203.5L233.1 203.5Q232 203.5 231.2 204.0Q230.3 204.4 229.8 205.2Q229.4 206.1 229.4 207.1L229.4 207.1L229.4 217ZM242.4 217L237.6 217L237.6 199.5L242.3 199.5L242.3 202.6L242.5 202.6Q243.0 201.0 244.1 200.1Q245.2 199.3 246.7 199.3L246.7 199.3Q247.0 199.3 247.5 199.3Q247.9 199.4 248.2 199.5L248.2 199.5L248.2 203.8Q247.9 203.7 247.3 203.6Q246.6 203.5 246.1 203.5L246.1 203.5Q245.1 203.5 244.2 204.0Q243.4 204.4 242.9 205.2Q242.4 206.1 242.4 207.1L242.4 207.1L242.4 217ZM254.2 223.5L254.2 223.5Q253.3 223.5 252.5 223.4Q251.7 223.3 251.2 223.0L251.2 223.0L252.3 219.4Q253.1 219.7 253.8 219.7Q254.5 219.7 255.0 219.4Q255.5 219.1 255.8 218.2L255.8 218.2L256.1 217.5L249.8 199.5L254.9 199.5L258.5 212.4L258.7 212.4L262.4 199.5L267.5 199.5L260.7 218.9Q260.2 220.3 259.4 221.3Q258.6 222.4 257.3 223.0Q256.0 223.5 254.2 223.5ZM270.7 193.7L275.8 193.7L275.3 210.0L271.2 210.0L270.7 193.7ZM273.2 217.3L273.2 217.3Q272.1 217.3 271.3 216.5Q270.5 215.7 270.5 214.6L270.5 214.6Q270.5 213.5 271.3 212.7Q272.1 211.9 273.2 211.9L273.2 211.9Q274.3 211.9 275.1 212.7Q276.0 213.5 276.0 214.6L276.0 214.6Q276.0 215.3 275.6 215.9Q275.2 216.6 274.6 216.9Q274.0 217.3 273.2 217.3Z M293.6 197.8L286.4 197.8L286.4 193.7L305.6 193.7L305.6 197.8L298.4 197.8L298.4 217L293.6 217L293.6 197.8ZM313.5 206.9L313.5 206.9L313.5 217L308.6 217L308.6 193.7L313.3 193.7L313.3 202.6L313.5 202.6Q314.1 201.1 315.4 200.2Q316.8 199.3 318.8 199.3L318.8 199.3Q320.6 199.3 321.9 200.1Q323.3 200.9 324.0 202.4Q324.8 203.8 324.8 205.9L324.8 205.9L324.8 217L319.9 217L319.9 206.8Q320.0 205.1 319.1 204.2Q318.3 203.3 316.8 203.3L316.8 203.3Q315.8 203.3 315.1 203.8Q314.3 204.2 313.9 205.0Q313.5 205.8 313.5 206.9ZM333.4 217L328.6 217L328.6 199.5L333.4 199.5L333.4 217ZM331.0 197.3L331.0 197.3Q330.0 197.3 329.2 196.6Q328.4 195.9 328.4 194.8L328.4 194.8Q328.4 193.8 329.2 193.1Q330.0 192.4 331.0 192.4L331.0 192.4Q332.1 192.4 332.9 193.1Q333.6 193.8 333.6 194.8L333.6 194.8Q333.6 195.9 332.9 196.6Q332.1 197.3 331.0 197.3ZM351.8 204.5L351.8 204.5L347.4 204.8Q347.3 204.2 346.9 203.8Q346.5 203.3 345.9 203.0Q345.3 202.8 344.5 202.8L344.5 202.8Q343.4 202.8 342.6 203.2Q341.8 203.7 341.8 204.5L341.8 204.5Q341.8 205.1 342.3 205.5Q342.8 206.0 344.0 206.2L344.0 206.2L347.2 206.9Q349.7 207.4 351.0 208.5Q352.2 209.7 352.2 211.6L352.2 211.6Q352.2 213.3 351.2 214.6Q350.2 215.9 348.5 216.6Q346.7 217.3 344.5 217.3L344.5 217.3Q341.0 217.3 338.9 215.9Q336.9 214.4 336.5 211.9L336.5 211.9L341.3 211.7Q341.5 212.8 342.3 213.3Q343.2 213.9 344.5 213.9L344.5 213.9Q345.7 213.9 346.5 213.4Q347.3 212.9 347.3 212.1L347.3 212.1Q347.3 211.4 346.8 211.0Q346.2 210.6 345.1 210.3L345.1 210.3L342.0 209.7Q339.5 209.2 338.2 208.0Q337 206.7 337 204.8L337 204.8Q337 203.1 337.9 201.9Q338.8 200.6 340.5 200.0Q342.2 199.3 344.4 199.3L344.4 199.3Q347.7 199.3 349.6 200.7Q351.5 202.1 351.8 204.5Z M367.5 217L362.7 217L362.7 199.5L367.5 199.5L367.5 217ZM365.1 197.3L365.1 197.3Q364.1 197.3 363.3 196.6Q362.5 195.9 362.5 194.8L362.5 194.8Q362.5 193.8 363.3 193.1Q364.1 192.4 365.1 192.4L365.1 192.4Q366.2 192.4 367.0 193.1Q367.8 193.8 367.8 194.8L367.8 194.8Q367.8 195.9 367.0 196.6Q366.2 197.3 365.1 197.3ZM376.2 217L371.4 217L371.4 199.5L376.0 199.5L376.0 202.6L376.2 202.6Q376.8 201.1 378.0 200.2Q379.3 199.3 381.1 199.3L381.1 199.3Q382.9 199.3 384.1 200.2Q385.4 201.1 385.8 202.6L385.8 202.6L386.0 202.6Q386.5 201.1 387.9 200.2Q389.4 199.3 391.3 199.3L391.3 199.3Q393.7 199.3 395.2 200.9Q396.8 202.4 396.8 205.3L396.8 205.3L396.8 217L391.9 217L391.9 206.2Q391.9 204.8 391.2 204.0Q390.4 203.3 389.2 203.3L389.2 203.3Q387.9 203.3 387.2 204.1Q386.4 205.0 386.4 206.3L386.4 206.3L386.4 217L381.7 217L381.7 206.1Q381.7 204.8 381.0 204.1Q380.3 203.3 379.1 203.3L379.1 203.3Q378.3 203.3 377.6 203.7Q377.0 204.1 376.6 204.8Q376.2 205.6 376.2 206.5L376.2 206.5L376.2 217ZM405.6 217.3L405.6 217.3Q403.9 217.3 402.6 216.7Q401.3 216.2 400.5 215.0Q399.8 213.9 399.8 212.1L399.8 212.1Q399.8 210.7 400.3 209.7Q400.8 208.7 401.8 208.1Q402.7 207.5 403.9 207.2Q405.0 206.9 406.3 206.8L406.3 206.8Q407.9 206.6 408.8 206.4Q409.7 206.3 410.1 206.0Q410.6 205.7 410.6 205.2L410.6 205.2L410.6 205.1Q410.6 204.0 409.9 203.4Q409.2 202.9 408.0 202.9L408.0 202.9Q406.7 202.9 405.9 203.4Q405.1 204 404.9 204.9L404.9 204.9L400.4 204.5Q400.7 202.9 401.7 201.7Q402.7 200.6 404.3 199.9Q405.9 199.3 408.0 199.3L408.0 199.3Q409.4 199.3 410.8 199.7Q412.1 200 413.2 200.7Q414.2 201.4 414.8 202.6Q415.4 203.7 415.4 205.2L415.4 205.2L415.4 217L410.8 217L410.8 214.6L410.7 214.6Q410.2 215.4 409.5 216.0Q408.8 216.6 407.9 217.0Q406.9 217.3 405.6 217.3ZM407.0 214.0L407.0 214.0Q408.0 214.0 408.8 213.6Q409.7 213.1 410.1 212.4Q410.6 211.7 410.6 210.8L410.6 210.8L410.6 208.9Q410.4 209.1 410.0 209.2Q409.6 209.3 409.1 209.4Q408.6 209.5 408.1 209.6Q407.6 209.6 407.2 209.7L407.2 209.7Q406.4 209.8 405.7 210.1Q405.1 210.4 404.7 210.8Q404.4 211.3 404.4 212.0L404.4 212.0Q404.4 213.0 405.1 213.5Q405.8 214.0 407.0 214.0ZM427.0 223.9L427.0 223.9Q424.7 223.9 423.0 223.3Q421.3 222.6 420.3 221.5Q419.3 220.4 419.0 219.0L419.0 219.0L423.5 218.4Q423.7 219.0 424.2 219.4Q424.6 219.9 425.3 220.2Q426.1 220.4 427.1 220.4L427.1 220.4Q428.7 220.4 429.7 219.7Q430.8 218.9 430.8 217.1L430.8 217.1L430.8 213.9L430.6 213.9Q430.2 214.6 429.6 215.3Q429.0 215.9 428.0 216.3Q427.0 216.8 425.6 216.8L425.6 216.8Q423.6 216.8 422.0 215.8Q420.4 214.9 419.5 213.0Q418.5 211.1 418.5 208.2L418.5 208.2Q418.5 205.3 419.5 203.3Q420.4 201.3 422.1 200.3Q423.7 199.3 425.6 199.3L425.6 199.3Q427.0 199.3 428.0 199.8Q429.0 200.3 429.6 201.0Q430.2 201.8 430.6 202.5L430.6 202.5L430.7 202.5L430.7 199.5L435.6 199.5L435.6 217.2Q435.6 219.4 434.5 220.9Q433.4 222.4 431.4 223.2Q429.5 223.9 427.0 223.9ZM427.1 213.1L427.1 213.1Q428.3 213.1 429.1 212.5Q429.9 211.9 430.4 210.8Q430.8 209.8 430.8 208.2L430.8 208.2Q430.8 206.7 430.4 205.6Q429.9 204.4 429.1 203.8Q428.3 203.2 427.1 203.2L427.1 203.2Q425.9 203.2 425.1 203.8Q424.3 204.5 423.9 205.6Q423.5 206.7 423.5 208.2L423.5 208.2Q423.5 209.7 423.9 210.8Q424.3 211.9 425.1 212.5Q425.9 213.1 427.1 213.1ZM447.4 217.3L447.4 217.3Q444.7 217.3 442.7 216.2Q440.8 215.1 439.8 213.1Q438.7 211.1 438.7 208.4L438.7 208.4Q438.7 205.7 439.8 203.6Q440.8 201.6 442.7 200.5Q444.6 199.3 447.2 199.3L447.2 199.3Q448.9 199.3 450.4 199.9Q451.9 200.4 453.0 201.5Q454.1 202.6 454.8 204.3Q455.4 206.0 455.4 208.2L455.4 208.2L455.4 209.5L440.6 209.5L440.6 206.5L450.8 206.5Q450.8 205.5 450.4 204.7Q449.9 203.9 449.1 203.4Q448.3 202.9 447.3 202.9L447.3 202.9Q446.2 202.9 445.3 203.4Q444.5 203.9 444.0 204.8Q443.5 205.6 443.5 206.7L443.5 206.7L443.5 209.5Q443.5 210.8 444.0 211.8Q444.5 212.7 445.4 213.2Q446.2 213.7 447.5 213.7L447.5 213.7Q448.3 213.7 448.9 213.5Q449.6 213.3 450.1 212.8Q450.6 212.4 450.8 211.7L450.8 211.7L455.3 212Q454.9 213.6 453.9 214.8Q452.8 216.0 451.2 216.7Q449.5 217.3 447.4 217.3Z M470.8 217L466.0 217L466.0 199.5L470.8 199.5L470.8 217ZM468.4 197.3L468.4 197.3Q467.3 197.3 466.6 196.6Q465.8 195.9 465.8 194.8L465.8 194.8Q465.8 193.8 466.6 193.1Q467.3 192.4 468.4 192.4L468.4 192.4Q469.5 192.4 470.2 193.1Q471.0 193.8 471.0 194.8L471.0 194.8Q471.0 195.9 470.2 196.6Q469.5 197.3 468.4 197.3ZM489.2 204.5L489.2 204.5L484.8 204.8Q484.6 204.2 484.3 203.8Q483.9 203.3 483.3 203.0Q482.7 202.8 481.8 202.8L481.8 202.8Q480.7 202.8 479.9 203.2Q479.2 203.7 479.2 204.5L479.2 204.5Q479.2 205.1 479.7 205.5Q480.2 206.0 481.4 206.2L481.4 206.2L484.5 206.9Q487.1 207.4 488.3 208.5Q489.6 209.7 489.6 211.6L489.6 211.6Q489.6 213.3 488.6 214.6Q487.6 215.9 485.8 216.6Q484.1 217.3 481.8 217.3L481.8 217.3Q478.4 217.3 476.3 215.9Q474.2 214.4 473.9 211.9L473.9 211.9L478.7 211.7Q478.9 212.8 479.7 213.3Q480.5 213.9 481.8 213.9L481.8 213.9Q483.1 213.9 483.9 213.4Q484.7 212.9 484.7 212.1L484.7 212.1Q484.7 211.4 484.1 211.0Q483.6 210.6 482.4 210.3L482.4 210.3L479.4 209.7Q476.9 209.2 475.6 208.0Q474.4 206.7 474.4 204.8L474.4 204.8Q474.4 203.1 475.3 201.9Q476.2 200.6 477.9 200.0Q479.5 199.3 481.8 199.3L481.8 199.3Q485.1 199.3 487.0 200.7Q488.9 202.1 489.2 204.5Z M504.9 217L500.2 217L500.2 193.7L505 193.7L505 202.5L505.1 202.5Q505.5 201.8 506.1 201.0Q506.7 200.3 507.7 199.8Q508.6 199.3 510.1 199.3L510.1 199.3Q512.0 199.3 513.6 200.3Q515.3 201.3 516.2 203.3Q517.2 205.3 517.2 208.3L517.2 208.3Q517.2 211.2 516.2 213.2Q515.3 215.2 513.7 216.3Q512.1 217.3 510.1 217.3L510.1 217.3Q508.7 217.3 507.7 216.8Q506.7 216.4 506.1 215.6Q505.5 214.9 505.1 214.2L505.1 214.2L504.9 214.2L504.9 217ZM504.9 208.3L504.9 208.3Q504.9 209.8 505.3 211.0Q505.8 212.1 506.6 212.8Q507.4 213.4 508.6 213.4L508.6 213.4Q509.8 213.4 510.6 212.8Q511.4 212.1 511.8 211.0Q512.2 209.8 512.2 208.3L512.2 208.3Q512.2 206.8 511.8 205.6Q511.4 204.5 510.6 203.8Q509.8 203.2 508.6 203.2L508.6 203.2Q507.4 203.2 506.6 203.8Q505.8 204.4 505.3 205.6Q504.9 206.7 504.9 208.3ZM525.2 217L520.4 217L520.4 199.5L525.1 199.5L525.1 202.6L525.3 202.6Q525.8 201.0 526.9 200.1Q528 199.3 529.5 199.3L529.5 199.3Q529.8 199.3 530.3 199.3Q530.7 199.4 531.0 199.5L531.0 199.5L531.0 203.8Q530.6 203.7 530.0 203.6Q529.4 203.5 528.9 203.5L528.9 203.5Q527.9 203.5 527.0 204.0Q526.2 204.4 525.7 205.2Q525.2 206.1 525.2 207.1L525.2 207.1L525.2 217ZM540.5 217.3L540.5 217.3Q537.9 217.3 536.0 216.2Q534.0 215.1 533 213.1Q532.0 211.0 532.0 208.3L532.0 208.3Q532.0 205.6 533 203.6Q534.0 201.6 536.0 200.4Q537.9 199.3 540.5 199.3L540.5 199.3Q543.2 199.3 545.1 200.4Q547.0 201.6 548.1 203.6Q549.1 205.6 549.1 208.3L549.1 208.3Q549.1 211.0 548.1 213.1Q547.0 215.1 545.1 216.2Q543.2 217.3 540.5 217.3ZM540.6 213.6L540.6 213.6Q541.8 213.6 542.6 212.9Q543.4 212.2 543.8 211.0Q544.2 209.8 544.2 208.3L544.2 208.3Q544.2 206.8 543.8 205.6Q543.4 204.4 542.6 203.7Q541.8 203.0 540.6 203.0L540.6 203.0Q539.4 203.0 538.5 203.7Q537.7 204.4 537.3 205.6Q536.9 206.8 536.9 208.3L536.9 208.3Q536.9 209.8 537.3 211.0Q537.7 212.2 538.5 212.9Q539.4 213.6 540.6 213.6ZM559.9 208.3L556.7 212.0L556.7 206.2L557.4 206.2L563.0 199.5L568.5 199.5L561.0 208.3L559.9 208.3ZM557.1 217L552.3 217L552.3 193.7L557.1 193.7L557.1 217ZM568.9 217L563.2 217L558.1 209.4L561.3 206.0L568.9 217ZM578.1 217.3L578.1 217.3Q575.4 217.3 573.5 216.2Q571.6 215.1 570.5 213.1Q569.5 211.1 569.5 208.4L569.5 208.4Q569.5 205.7 570.5 203.6Q571.6 201.6 573.5 200.5Q575.4 199.3 577.9 199.3L577.9 199.3Q579.7 199.3 581.2 199.9Q582.7 200.4 583.8 201.5Q584.9 202.6 585.5 204.3Q586.1 206.0 586.1 208.2L586.1 208.2L586.1 209.5L571.4 209.5L571.4 206.5L581.6 206.5Q581.6 205.5 581.1 204.7Q580.7 203.9 579.9 203.4Q579.1 202.9 578.0 202.9L578.0 202.9Q576.9 202.9 576.1 203.4Q575.2 203.9 574.8 204.8Q574.3 205.6 574.3 206.7L574.3 206.7L574.3 209.5Q574.3 210.8 574.7 211.8Q575.2 212.7 576.1 213.2Q577 213.7 578.2 213.7L578.2 213.7Q579.0 213.7 579.7 213.5Q580.4 213.3 580.8 212.8Q581.3 212.4 581.6 211.7L581.6 211.7L586.0 212Q585.7 213.6 584.7 214.8Q583.6 216.0 581.9 216.7Q580.3 217.3 578.1 217.3ZM594.1 206.9L594.1 206.9L594.1 217L589.3 217L589.3 199.5L593.9 199.5L593.9 202.6L594.1 202.6Q594.7 201.1 596.1 200.2Q597.4 199.3 599.4 199.3L599.4 199.3Q601.2 199.3 602.5 200.1Q603.9 200.9 604.6 202.4Q605.4 203.9 605.4 205.9L605.4 205.9L605.4 217L600.6 217L600.6 206.8Q600.6 205.1 599.7 204.2Q598.9 203.3 597.5 203.3L597.5 203.3Q596.5 203.3 595.7 203.8Q595.0 204.2 594.6 205.0Q594.2 205.8 594.1 206.9ZM612.0 217.3L612.0 217.3Q610.9 217.3 610.1 216.5Q609.3 215.7 609.3 214.6L609.3 214.6Q609.3 213.5 610.1 212.7Q610.9 211.9 612.0 211.9L612.0 211.9Q613.1 211.9 613.9 212.7Q614.8 213.5 614.8 214.6L614.8 214.6Q614.8 215.3 614.4 215.9Q614 216.6 613.4 216.9Q612.8 217.3 612.0 217.3Z "/><mask id="satori_om-id-3"><rect x="232" y="241" width="336" height="20" fill="#fff"/></mask><path fill="black" d="M242.8 248.5L242.8 248.5L241.4 248.5Q241.2 247.9 240.9 247.4Q240.6 247.0 240.2 246.7Q239.7 246.3 239.2 246.2Q238.7 246.0 238.1 246.0L238.1 246.0Q237.0 246.0 236.2 246.6Q235.3 247.1 234.8 248.1Q234.3 249.2 234.3 250.7L234.3 250.7Q234.3 252.2 234.8 253.2Q235.3 254.3 236.2 254.8Q237.0 255.3 238.1 255.3L238.1 255.3Q238.7 255.3 239.2 255.2Q239.7 255.0 240.2 254.7Q240.6 254.4 240.9 253.9Q241.2 253.5 241.4 252.9L241.4 252.9L242.8 252.9Q242.6 253.8 242.2 254.5Q241.8 255.2 241.1 255.7Q240.5 256.1 239.7 256.4Q239.0 256.7 238.1 256.7L238.1 256.7Q236.6 256.7 235.4 255.9Q234.3 255.2 233.6 253.9Q233.0 252.5 233.0 250.7L233.0 250.7Q233.0 248.8 233.6 247.5Q234.3 246.2 235.4 245.4Q236.6 244.7 238.1 244.7L238.1 244.7Q239.0 244.7 239.7 245.0Q240.5 245.2 241.1 245.7Q241.8 246.2 242.2 246.9Q242.6 247.6 242.8 248.5ZM248.4 256.7L248.4 256.7Q247.2 256.7 246.3 256.1Q245.4 255.6 245.0 254.5Q244.5 253.5 244.5 252.2L244.5 252.2Q244.5 250.8 245.0 249.8Q245.4 248.8 246.3 248.2Q247.2 247.7 248.4 247.7L248.4 247.7Q249.6 247.7 250.5 248.2Q251.4 248.8 251.9 249.8Q252.4 250.8 252.4 252.2L252.4 252.2Q252.4 253.5 251.9 254.5Q251.4 255.6 250.5 256.1Q249.6 256.7 248.4 256.7ZM248.4 255.5L248.4 255.5Q249.3 255.5 249.9 255.0Q250.5 254.6 250.7 253.8Q251.0 253.1 251.0 252.2L251.0 252.2Q251.0 251.3 250.7 250.6Q250.5 249.8 249.9 249.3Q249.3 248.9 248.4 248.9L248.4 248.9Q247.5 248.9 246.9 249.3Q246.4 249.8 246.1 250.6Q245.8 251.3 245.8 252.2L245.8 252.2Q245.8 253.1 246.1 253.8Q246.4 254.6 246.9 255.0Q247.5 255.5 248.4 255.5ZM255.7 251.3L255.7 251.3L255.7 256.5L254.4 256.5L254.4 247.8L255.7 247.8L255.7 249.1L255.8 249.1Q256.1 248.5 256.8 248.1Q257.4 247.7 258.4 247.7L258.4 247.7Q259.3 247.7 259.9 248.0Q260.6 248.4 260.9 249.1Q261.3 249.8 261.3 251.0L261.3 251.0L261.3 256.5L260.0 256.5L260.0 251.0Q260.0 250.0 259.4 249.4Q258.9 248.9 258.0 248.9L258.0 248.9Q257.3 248.9 256.8 249.1Q256.3 249.4 256.0 250.0Q255.7 250.5 255.7 251.3ZM270.0 249.7L270.0 249.7L268.7 250.1Q268.6 249.8 268.4 249.5Q268.2 249.2 267.8 249.0Q267.4 248.8 266.9 248.8L266.9 248.8Q266.1 248.8 265.5 249.2Q265.0 249.6 265.0 250.1L265.0 250.1Q265.0 250.6 265.4 250.9Q265.7 251.2 266.5 251.4L266.5 251.4L267.8 251.7Q269.0 252.0 269.5 252.6Q270.1 253.2 270.1 254.1L270.1 254.1Q270.1 254.8 269.7 255.4Q269.3 256 268.5 256.3Q267.7 256.7 266.7 256.7L266.7 256.7Q265.4 256.7 264.5 256.1Q263.6 255.5 263.4 254.4L263.4 254.4L264.7 254.1Q264.8 254.8 265.3 255.1Q265.9 255.5 266.7 255.5L266.7 255.5Q267.6 255.5 268.2 255.1Q268.7 254.7 268.7 254.1L268.7 254.1Q268.7 253.7 268.4 253.4Q268.1 253.1 267.4 252.9L267.4 252.9L266.0 252.6Q264.8 252.3 264.2 251.7Q263.7 251.1 263.7 250.2L263.7 250.2Q263.7 249.4 264.1 248.9Q264.5 248.3 265.2 248.0Q265.9 247.7 266.9 247.7L266.9 247.7Q268.2 247.7 268.9 248.2Q269.6 248.8 270.0 249.7ZM273.5 256.5L272.1 256.5L272.1 247.8L273.5 247.8L273.5 256.5ZM272.8 246.3L272.8 246.3Q272.4 246.3 272.1 246.1Q271.9 245.8 271.9 245.4L271.9 245.4Q271.9 245.0 272.1 244.8Q272.4 244.5 272.8 244.5L272.8 244.5Q273.2 244.5 273.5 244.8Q273.8 245.0 273.8 245.4L273.8 245.4Q273.8 245.8 273.5 246.1Q273.2 246.3 272.8 246.3ZM279.2 256.7L279.2 256.7Q278.1 256.7 277.3 256.1Q276.5 255.6 276.0 254.6Q275.5 253.5 275.5 252.2L275.5 252.2Q275.5 250.8 276.0 249.8Q276.5 248.8 277.3 248.2Q278.1 247.7 279.3 247.7L279.3 247.7Q280.1 247.7 280.6 247.9Q281.1 248.2 281.4 248.6Q281.6 248.9 281.8 249.2L281.8 249.2L281.9 249.2L281.9 244.9L283.2 244.9L283.2 256.5L281.9 256.5L281.9 255.2L281.8 255.2Q281.6 255.4 281.4 255.8Q281.1 256.1 280.6 256.4Q280.1 256.7 279.2 256.7ZM279.4 255.5L279.4 255.5Q280.2 255.5 280.8 255.1Q281.3 254.6 281.6 253.9Q281.9 253.1 281.9 252.1L281.9 252.1Q281.9 251.2 281.6 250.4Q281.3 249.7 280.8 249.3Q280.2 248.9 279.4 248.9L279.4 248.9Q278.6 248.9 278.0 249.3Q277.4 249.7 277.1 250.5Q276.9 251.2 276.9 252.1L276.9 252.1Q276.9 253.1 277.2 253.8Q277.4 254.6 278.0 255.0Q278.6 255.5 279.4 255.5ZM289.5 256.7L289.5 256.7Q288.3 256.7 287.3 256.1Q286.4 255.6 285.9 254.6Q285.5 253.5 285.5 252.2L285.5 252.2Q285.5 250.9 285.9 249.8Q286.4 248.8 287.3 248.2Q288.2 247.7 289.4 247.7L289.4 247.7Q290.1 247.7 290.7 247.9Q291.4 248.1 291.9 248.6Q292.5 249.1 292.8 250.0Q293.1 250.8 293.1 252.0L293.1 252.0L293.1 252.6L286.4 252.6L286.4 251.4L291.8 251.4Q291.8 250.7 291.5 250.1Q291.2 249.5 290.7 249.2Q290.1 248.9 289.4 248.9L289.4 248.9Q288.6 248.9 288.0 249.3Q287.4 249.7 287.1 250.3Q286.8 250.9 286.8 251.6L286.8 251.6L286.8 252.4Q286.8 253.4 287.1 254.1Q287.5 254.8 288.1 255.1Q288.7 255.5 289.5 255.5L289.5 255.5Q290.1 255.5 290.5 255.3Q290.9 255.2 291.2 254.9Q291.5 254.6 291.7 254.1L291.7 254.1L293 254.5Q292.8 255.1 292.3 255.6Q291.8 256.1 291.1 256.4Q290.4 256.7 289.5 256.7ZM296.5 256.5L295.2 256.5L295.2 247.8L296.5 247.8L296.5 249.1L296.6 249.1Q296.8 248.4 297.4 248.0Q298.1 247.6 298.8 247.6L298.8 247.6Q299.0 247.6 299.2 247.6Q299.4 247.6 299.5 247.7L299.5 247.7L299.5 249.0Q299.5 249.0 299.2 249.0Q299.0 248.9 298.7 248.9L298.7 248.9Q298.1 248.9 297.6 249.2Q297.1 249.5 296.8 249.9Q296.5 250.4 296.5 251.0L296.5 251.0L296.5 256.5Z M309.2 256.7L309.2 256.7Q308 256.7 307.1 256.1Q306.2 255.6 305.7 254.5Q305.2 253.5 305.2 252.2L305.2 252.2Q305.2 250.8 305.7 249.8Q306.2 248.8 307.1 248.2Q308 247.7 309.2 247.7L309.2 247.7Q310.4 247.7 311.3 248.2Q312.1 248.8 312.6 249.8Q313.1 250.8 313.1 252.2L313.1 252.2Q313.1 253.5 312.6 254.5Q312.1 255.6 311.3 256.1Q310.4 256.7 309.2 256.7ZM309.2 255.5L309.2 255.5Q310.1 255.5 310.7 255.0Q311.2 254.6 311.5 253.8Q311.8 253.1 311.8 252.2L311.8 252.2Q311.8 251.3 311.5 250.6Q311.2 249.8 310.7 249.3Q310.1 248.9 309.2 248.9L309.2 248.9Q308.3 248.9 307.7 249.3Q307.1 249.8 306.8 250.6Q306.6 251.3 306.6 252.2L306.6 252.2Q306.6 253.1 306.8 253.8Q307.1 254.6 307.7 255.0Q308.3 255.5 309.2 255.5ZM316.5 259.8L315.2 259.8L315.2 247.8L316.5 247.8L316.5 249.2L316.6 249.2Q316.8 248.9 317.0 248.6Q317.3 248.2 317.8 247.9Q318.3 247.7 319.2 247.7L319.2 247.7Q320.3 247.7 321.1 248.2Q321.9 248.8 322.4 249.8Q322.9 250.8 322.9 252.2L322.9 252.2Q322.9 253.5 322.4 254.6Q321.9 255.6 321.1 256.1Q320.3 256.7 319.2 256.7L319.2 256.7Q318.3 256.7 317.8 256.4Q317.3 256.1 317.1 255.8Q316.8 255.4 316.6 255.2L316.6 255.2L316.5 255.2L316.5 259.8ZM316.5 252.1L316.5 252.1Q316.5 253.1 316.8 253.9Q317.1 254.6 317.6 255.1Q318.2 255.5 319.0 255.5L319.0 255.5Q319.8 255.5 320.4 255.0Q321.0 254.6 321.3 253.8Q321.5 253.1 321.5 252.1L321.5 252.1Q321.5 251.2 321.3 250.5Q321.0 249.7 320.4 249.3Q319.9 248.9 319.0 248.9L319.0 248.9Q318.2 248.9 317.6 249.3Q317.1 249.7 316.8 250.4Q316.5 251.2 316.5 252.1ZM328.6 256.7L328.6 256.7Q327.3 256.7 326.4 256.1Q325.5 255.6 325.0 254.6Q324.5 253.5 324.5 252.2L324.5 252.2Q324.5 250.9 325.0 249.8Q325.5 248.8 326.4 248.2Q327.3 247.7 328.5 247.7L328.5 247.7Q329.1 247.7 329.8 247.9Q330.5 248.1 331.0 248.6Q331.6 249.1 331.9 250.0Q332.2 250.8 332.2 252.0L332.2 252.0L332.2 252.6L325.5 252.6L325.5 251.4L330.8 251.4Q330.8 250.7 330.5 250.1Q330.3 249.5 329.7 249.2Q329.2 248.9 328.5 248.9L328.5 248.9Q327.7 248.9 327.1 249.3Q326.5 249.7 326.2 250.3Q325.9 250.9 325.9 251.6L325.9 251.6L325.9 252.4Q325.9 253.4 326.2 254.1Q326.6 254.8 327.2 255.1Q327.8 255.5 328.6 255.5L328.6 255.5Q329.1 255.5 329.5 255.3Q330.0 255.2 330.3 254.9Q330.6 254.6 330.8 254.1L330.8 254.1L332.1 254.5Q331.9 255.1 331.4 255.6Q330.9 256.1 330.2 256.4Q329.5 256.7 328.6 256.7ZM335.6 251.3L335.6 251.3L335.6 256.5L334.3 256.5L334.3 247.8L335.5 247.8L335.5 249.1L335.7 249.1Q336.0 248.5 336.6 248.1Q337.2 247.7 338.2 247.7L338.2 247.7Q339.1 247.7 339.8 248.0Q340.4 248.4 340.8 249.1Q341.2 249.8 341.2 251.0L341.2 251.0L341.2 256.5L339.8 256.5L339.8 251.0Q339.8 250.0 339.3 249.4Q338.8 248.9 337.8 248.9L337.8 248.9Q337.2 248.9 336.7 249.1Q336.2 249.4 335.9 250.0Q335.6 250.5 335.6 251.3ZM345.0 256.5L343.6 256.5L343.6 247.8L345.0 247.8L345.0 256.5ZM344.3 246.3L344.3 246.3Q343.9 246.3 343.6 246.1Q343.3 245.8 343.3 245.4L343.3 245.4Q343.3 245.0 343.6 244.8Q343.9 244.5 344.3 244.5L344.3 244.5Q344.7 244.5 345.0 244.8Q345.3 245.0 345.3 245.4L345.3 245.4Q345.3 245.8 345.0 246.1Q344.7 246.3 344.3 246.3ZM348.8 251.3L348.8 251.3L348.8 256.5L347.4 256.5L347.4 247.8L348.7 247.8L348.7 249.1L348.8 249.1Q349.1 248.5 349.8 248.1Q350.4 247.7 351.4 247.7L351.4 247.7Q352.3 247.7 352.9 248.0Q353.6 248.4 353.9 249.1Q354.3 249.8 354.3 251.0L354.3 251.0L354.3 256.5L353.0 256.5L353.0 251.0Q353.0 250.0 352.4 249.4Q351.9 248.9 351.0 248.9L351.0 248.9Q350.3 248.9 349.8 249.1Q349.3 249.4 349.0 250.0Q348.8 250.5 348.8 251.3ZM360.3 260.0L360.3 260.0Q359.3 260.0 358.6 259.7Q357.9 259.5 357.5 259.1Q357.0 258.7 356.7 258.2L356.7 258.2L357.8 257.5Q358.0 257.7 358.3 258.0Q358.5 258.3 359.0 258.5Q359.5 258.8 360.3 258.8L360.3 258.8Q361.4 258.8 362.0 258.3Q362.7 257.8 362.7 256.7L362.7 256.7L362.7 254.9L362.6 254.9Q362.5 255.1 362.2 255.5Q361.9 255.8 361.4 256.1Q360.9 256.4 360.1 256.4L360.1 256.4Q359.0 256.4 358.2 255.9Q357.3 255.4 356.8 254.4Q356.4 253.5 356.4 252.1L356.4 252.1Q356.4 250.8 356.8 249.8Q357.3 248.8 358.1 248.2Q359.0 247.7 360.1 247.7L360.1 247.7Q360.9 247.7 361.4 247.9Q361.9 248.2 362.2 248.6Q362.5 248.9 362.6 249.2L362.6 249.2L362.8 249.2L362.8 247.8L364.1 247.8L364.1 256.8Q364.1 257.9 363.6 258.6Q363.1 259.3 362.2 259.6Q361.3 260.0 360.3 260.0ZM360.3 255.2L360.3 255.2Q361.1 255.2 361.6 254.8Q362.2 254.4 362.5 253.7Q362.8 253.0 362.8 252.1L362.8 252.1Q362.8 251.1 362.5 250.4Q362.2 249.7 361.6 249.3Q361.1 248.9 360.3 248.9L360.3 248.9Q359.4 248.9 358.8 249.3Q358.3 249.7 358.0 250.5Q357.7 251.2 357.7 252.1L357.7 252.1Q357.7 253.0 358.0 253.7Q358.3 254.4 358.8 254.8Q359.4 255.2 360.3 255.2Z M373.6 256.7L373.6 256.7Q372.8 256.7 372.1 256.4Q371.4 256.1 371.0 255.5Q370.6 254.9 370.6 254.0L370.6 254.0Q370.6 253.3 370.9 252.8Q371.2 252.3 371.7 252.1Q372.2 251.8 372.8 251.7Q373.4 251.5 374 251.5L374 251.5Q374.8 251.4 375.3 251.3Q375.8 251.2 376.0 251.1Q376.3 251.0 376.3 250.7L376.3 250.7L376.3 250.6Q376.3 249.8 375.8 249.3Q375.3 248.8 374.4 248.8L374.4 248.8Q373.4 248.8 372.9 249.3Q372.4 249.7 372.1 250.2L372.1 250.2L370.9 249.7Q371.2 248.9 371.8 248.5Q372.3 248.0 373.0 247.8Q373.7 247.7 374.4 247.7L374.4 247.7Q374.8 247.7 375.3 247.8Q375.9 247.9 376.4 248.2Q376.9 248.5 377.3 249.1Q377.6 249.7 377.6 250.8L377.6 250.8L377.6 256.5L376.3 256.5L376.3 255.3L376.2 255.3Q376.0 255.6 375.7 255.9Q375.4 256.3 374.9 256.5Q374.4 256.7 373.6 256.7ZM373.8 255.5L373.8 255.5Q374.6 255.5 375.1 255.2Q375.7 254.9 376.0 254.4Q376.3 253.9 376.3 253.3L376.3 253.3L376.3 252.1Q376.2 252.2 375.9 252.3Q375.6 252.4 375.2 252.4Q374.8 252.5 374.5 252.5Q374.1 252.6 373.9 252.6L373.9 252.6Q373.4 252.7 373.0 252.8Q372.5 253.0 372.2 253.3Q372.0 253.6 372.0 254.1L372.0 254.1Q372.0 254.8 372.5 255.1Q373.0 255.5 373.8 255.5Z M386.1 256.5L384.7 256.5L384.7 244.9L388.7 244.9Q390.0 244.9 390.9 245.4Q391.8 245.8 392.2 246.7Q392.6 247.5 392.6 248.5L392.6 248.5Q392.6 249.6 392.2 250.4Q391.8 251.3 390.9 251.8Q390.0 252.3 388.7 252.3L388.7 252.3L385.9 252.3L385.9 251L388.6 251Q389.6 251 390.1 250.7Q390.7 250.4 391.0 249.8Q391.2 249.2 391.2 248.5L391.2 248.5Q391.2 247.8 391.0 247.3Q390.7 246.7 390.1 246.4Q389.6 246.1 388.6 246.1L388.6 246.1L386.1 246.1L386.1 256.5ZM396.3 256.5L394.9 256.5L394.9 244.9L398.8 244.9Q400.2 244.9 401.1 245.3Q401.9 245.8 402.4 246.6Q402.8 247.4 402.8 248.4L402.8 248.4Q402.8 249.5 402.4 250.3Q401.9 251.1 401.1 251.5Q400.2 252.0 398.8 252.0L398.8 252.0L395.7 252.0L395.7 250.7L398.8 250.7Q399.7 250.7 400.3 250.4Q400.9 250.1 401.1 249.6Q401.4 249.1 401.4 248.4L401.4 248.4Q401.4 247.7 401.1 247.2Q400.9 246.7 400.3 246.4Q399.7 246.1 398.8 246.1L398.8 246.1L396.3 246.1L396.3 256.5ZM398.8 251.3L400.4 251.3L403.2 256.5L401.6 256.5L398.8 251.3Z M412.0 256.7L412.0 256.7Q411.2 256.7 410.5 256.4Q409.8 256.1 409.4 255.5Q409.0 254.9 409.0 254.0L409.0 254.0Q409.0 253.3 409.3 252.8Q409.6 252.3 410.1 252.1Q410.6 251.8 411.2 251.7Q411.8 251.5 412.4 251.5L412.4 251.5Q413.2 251.4 413.7 251.3Q414.2 251.2 414.4 251.1Q414.7 251.0 414.7 250.7L414.7 250.7L414.7 250.6Q414.7 249.8 414.2 249.3Q413.7 248.8 412.8 248.8L412.8 248.8Q411.9 248.8 411.3 249.3Q410.8 249.7 410.5 250.2L410.5 250.2L409.3 249.7Q409.6 248.9 410.2 248.5Q410.8 248.0 411.4 247.8Q412.1 247.7 412.8 247.7L412.8 247.7Q413.2 247.7 413.7 247.8Q414.3 247.9 414.8 248.2Q415.3 248.5 415.7 249.1Q416.0 249.7 416.0 250.8L416.0 250.8L416.0 256.5L414.7 256.5L414.7 255.3L414.6 255.3Q414.5 255.6 414.1 255.9Q413.8 256.3 413.3 256.5Q412.8 256.7 412.0 256.7ZM412.2 255.5L412.2 255.5Q413.0 255.5 413.5 255.2Q414.1 254.9 414.4 254.4Q414.7 253.9 414.7 253.3L414.7 253.3L414.7 252.1Q414.6 252.2 414.3 252.3Q414.0 252.4 413.6 252.4Q413.3 252.5 412.9 252.5Q412.6 252.6 412.3 252.6L412.3 252.6Q411.8 252.7 411.4 252.8Q410.9 253.0 410.6 253.3Q410.4 253.6 410.4 254.1L410.4 254.1Q410.4 254.8 410.9 255.1Q411.4 255.5 412.2 255.5ZM417.7 247.8L422.3 247.8L422.3 248.9L417.7 248.9L417.7 247.8ZM419.0 254.4L419.0 245.7L420.4 245.7L420.4 254Q420.4 254.6 420.6 254.8Q420.7 255.1 421.0 255.2Q421.3 255.3 421.5 255.3L421.5 255.3Q421.8 255.3 421.9 255.3Q422.1 255.3 422.1 255.3L422.1 255.3L422.4 256.5Q422.3 256.5 422.0 256.6Q421.8 256.6 421.4 256.6L421.4 256.6Q420.8 256.6 420.3 256.4Q419.8 256.1 419.4 255.6Q419.0 255.1 419.0 254.4L419.0 254.4Z "/><defs><clipPath id="satori_bc-id-3-1"><rect x="428" y="241" width="140" height="20"/></clipPath></defs><mask id="satori_om-id-3-1"><rect x="428" y="241" width="140" height="19" fill="#fff"/><path width="140" height="20" fill="none" stroke="#000" stroke-width="2" d="M568,261 A0,0 0 0 1 568,261 h-140 A0,0 0 0 1 428,261"/></mask><path width="140" height="20" clip-path="url(#satori_bc-id-3-1)" fill="none" stroke="black" stroke-width="2" d="M568,261 A0,0 0 0 1 568,261 h-140 A0,0 0 0 1 428,261"/><path fill="black" d="M430.1 259.8L430.1 259.8Q429.8 259.8 429.5 259.7Q429.2 259.7 429.1 259.6L429.1 259.6L429.5 258.4Q429.9 258.6 430.3 258.5Q430.7 258.5 431.0 258.2Q431.3 257.9 431.5 257.2L431.5 257.2L431.8 256.5L428.5 247.8L430 247.8L432.4 254.7L432.5 254.7L434.9 247.8L436.4 247.8L432.7 257.8Q432.4 258.4 432.0 258.9Q431.7 259.3 431.2 259.6Q430.7 259.8 430.1 259.8ZM443.6 252.9L443.6 252.9L443.6 247.8L445.0 247.8L445.0 256.5L443.6 256.5L443.6 255.0L443.5 255.0Q443.2 255.7 442.6 256.2Q441.9 256.6 441.0 256.6L441.0 256.6Q440.1 256.6 439.5 256.3Q438.9 255.9 438.5 255.2Q438.1 254.4 438.1 253.3L438.1 253.3L438.1 247.8L439.5 247.8L439.5 253.2Q439.5 254.2 440.0 254.8Q440.6 255.3 441.4 255.3L441.4 255.3Q441.9 255.3 442.4 255.1Q442.9 254.8 443.3 254.3Q443.6 253.8 443.6 252.9ZM448.8 251.3L448.8 251.3L448.8 256.5L447.4 256.5L447.4 247.8L448.7 247.8L448.7 249.1L448.8 249.1Q449.1 248.5 449.8 248.1Q450.4 247.7 451.4 247.7L451.4 247.7Q452.3 247.7 452.9 248.0Q453.6 248.4 454.0 249.1Q454.3 249.8 454.3 251.0L454.3 251.0L454.3 256.5L453.0 256.5L453.0 251.0Q453.0 250.0 452.5 249.4Q451.9 248.9 451.0 248.9L451.0 248.9Q450.4 248.9 449.9 249.1Q449.4 249.4 449.1 250.0Q448.8 250.5 448.8 251.3ZM460.3 260.0L460.3 260.0Q459.3 260.0 458.6 259.7Q457.9 259.5 457.5 259.1Q457.0 258.7 456.8 258.2L456.8 258.2L457.8 257.5Q458.0 257.7 458.3 258.0Q458.6 258.3 459.0 258.5Q459.5 258.8 460.3 258.8L460.3 258.8Q461.4 258.8 462.1 258.3Q462.8 257.8 462.8 256.7L462.8 256.7L462.8 254.9L462.6 254.9Q462.5 255.1 462.2 255.5Q461.9 255.8 461.4 256.1Q460.9 256.4 460.1 256.4L460.1 256.4Q459.0 256.4 458.2 255.9Q457.4 255.4 456.9 254.4Q456.4 253.5 456.4 252.1L456.4 252.1Q456.4 250.8 456.9 249.8Q457.3 248.8 458.2 248.2Q459.0 247.7 460.1 247.7L460.1 247.7Q461.0 247.7 461.5 247.9Q462.0 248.2 462.2 248.6Q462.5 248.9 462.7 249.2L462.7 249.2L462.8 249.2L462.8 247.8L464.1 247.8L464.1 256.8Q464.1 257.9 463.6 258.6Q463.1 259.3 462.2 259.6Q461.4 260.0 460.3 260.0ZM460.3 255.2L460.3 255.2Q461.1 255.2 461.6 254.8Q462.2 254.4 462.5 253.7Q462.8 253.0 462.8 252.1L462.8 252.1Q462.8 251.1 462.5 250.4Q462.2 249.7 461.6 249.3Q461.1 248.9 460.3 248.9L460.3 248.9Q459.4 248.9 458.9 249.3Q458.3 249.7 458.0 250.5Q457.7 251.2 457.7 252.1L457.7 252.1Q457.7 253.0 458.0 253.7Q458.3 254.4 458.9 254.8Q459.4 255.2 460.3 255.2ZM470.2 256.7L470.2 256.7Q468.9 256.7 468.0 256.1Q467.1 255.6 466.6 254.6Q466.1 253.5 466.1 252.2L466.1 252.2Q466.1 250.9 466.6 249.8Q467.1 248.8 468.0 248.2Q468.9 247.7 470.1 247.7L470.1 247.7Q470.8 247.7 471.4 247.9Q472.1 248.1 472.6 248.6Q473.2 249.1 473.5 250.0Q473.8 250.8 473.8 252.0L473.8 252.0L473.8 252.6L467.1 252.6L467.1 251.4L472.5 251.4Q472.5 250.7 472.2 250.1Q471.9 249.5 471.3 249.2Q470.8 248.9 470.1 248.9L470.1 248.9Q469.3 248.9 468.7 249.3Q468.1 249.7 467.8 250.3Q467.5 250.9 467.5 251.6L467.5 251.6L467.5 252.4Q467.5 253.4 467.8 254.1Q468.2 254.8 468.8 255.1Q469.4 255.5 470.2 255.5L470.2 255.5Q470.7 255.5 471.2 255.3Q471.6 255.2 471.9 254.9Q472.2 254.6 472.4 254.1L472.4 254.1L473.7 254.5Q473.5 255.1 473.0 255.6Q472.5 256.1 471.8 256.4Q471.1 256.7 470.2 256.7ZM477.2 256.5L475.9 256.5L475.9 247.8L477.2 247.8L477.2 249.1L477.3 249.1Q477.5 248.4 478.1 248.0Q478.7 247.6 479.5 247.6L479.5 247.6Q479.7 247.6 479.9 247.6Q480.1 247.6 480.2 247.7L480.2 247.7L480.2 249.0Q480.2 249.0 479.9 249.0Q479.7 248.9 479.4 248.9L479.4 248.9Q478.8 248.9 478.3 249.2Q477.8 249.5 477.5 249.9Q477.2 250.4 477.2 251.0L477.2 251.0L477.2 256.5ZM483.6 256.5L482.2 256.5L487.4 246.2L487.4 246.1L481.4 246.1L481.4 244.9L488.8 244.9L488.8 246.2L483.6 256.5ZM493.8 244.3L495.1 244.3L491.3 258.3L490.1 258.3L493.8 244.3ZM500.3 256.7L500.3 256.7Q499.1 256.7 498.1 256.1Q497.2 255.6 496.7 254.6Q496.3 253.5 496.3 252.2L496.3 252.2Q496.3 250.9 496.7 249.8Q497.2 248.8 498.1 248.2Q499 247.7 500.2 247.7L500.2 247.7Q500.9 247.7 501.5 247.9Q502.2 248.1 502.7 248.6Q503.3 249.1 503.6 250.0Q503.9 250.8 503.9 252.0L503.9 252.0L503.9 252.6L497.2 252.6L497.2 251.4L502.6 251.4Q502.6 250.7 502.3 250.1Q502.0 249.5 501.4 249.2Q500.9 248.9 500.2 248.9L500.2 248.9Q499.4 248.9 498.8 249.3Q498.2 249.7 497.9 250.3Q497.6 250.9 497.6 251.6L497.6 251.6L497.6 252.4Q497.6 253.4 497.9 254.1Q498.3 254.8 498.9 255.1Q499.5 255.5 500.3 255.5L500.3 255.5Q500.8 255.5 501.3 255.3Q501.7 255.2 502.0 254.9Q502.3 254.6 502.5 254.1L502.5 254.1L503.8 254.5Q503.6 255.1 503.1 255.6Q502.6 256.1 501.9 256.4Q501.2 256.7 500.3 256.7ZM507.3 251.3L507.3 251.3L507.3 256.5L506.0 256.5L506.0 247.8L507.3 247.8L507.3 249.1L507.4 249.1Q507.7 248.5 508.3 248.1Q508.9 247.7 509.9 247.7L509.9 247.7Q510.8 247.7 511.5 248.0Q512.1 248.4 512.5 249.1Q512.9 249.8 512.9 251.0L512.9 251.0L512.9 256.5L511.5 256.5L511.5 251.0Q511.5 250.0 511.0 249.4Q510.5 248.9 509.5 248.9L509.5 248.9Q508.9 248.9 508.4 249.1Q507.9 249.4 507.6 250.0Q507.3 250.5 507.3 251.3ZM519 256.7L519 256.7Q517.7 256.7 516.8 256.1Q515.9 255.6 515.4 254.6Q514.9 253.5 514.9 252.2L514.9 252.2Q514.9 250.9 515.4 249.8Q515.9 248.8 516.8 248.2Q517.7 247.7 518.9 247.7L518.9 247.7Q519.5 247.7 520.2 247.9Q520.9 248.1 521.4 248.6Q522.0 249.1 522.3 250.0Q522.6 250.8 522.6 252.0L522.6 252.0L522.6 252.6L515.9 252.6L515.9 251.4L521.3 251.4Q521.3 250.7 521.0 250.1Q520.7 249.5 520.1 249.2Q519.6 248.9 518.9 248.9L518.9 248.9Q518.1 248.9 517.5 249.3Q516.9 249.7 516.6 250.3Q516.3 250.9 516.3 251.6L516.3 251.6L516.3 252.4Q516.3 253.4 516.6 254.1Q517.0 254.8 517.6 255.1Q518.2 255.5 519 255.5L519 255.5Q519.5 255.5 520.0 255.3Q520.4 255.2 520.7 254.9Q521.0 254.6 521.2 254.1L521.2 254.1L522.5 254.5Q522.3 255.1 521.8 255.6Q521.3 256.1 520.6 256.4Q519.9 256.7 519 256.7ZM526.0 256.5L524.7 256.5L524.7 247.8L526.0 247.8L526.0 249.1L526.1 249.1Q526.3 248.4 526.9 248.0Q527.6 247.7 528.4 247.7L528.4 247.7Q529.3 247.7 529.8 248.0Q530.4 248.4 530.8 249.1L530.8 249.1L530.8 249.1Q531.2 248.5 531.8 248.1Q532.5 247.7 533.5 247.7L533.5 247.7Q534.6 247.7 535.4 248.4Q536.1 249.1 536.1 250.7L536.1 250.7L536.1 256.5L534.8 256.5L534.8 250.7Q534.8 249.7 534.2 249.3Q533.7 248.9 533.0 248.9L533.0 248.9Q532.1 248.9 531.6 249.4Q531.1 250.0 531.1 250.8L531.1 250.8L531.1 256.5L529.7 256.5L529.7 250.5Q529.7 249.8 529.2 249.3Q528.7 248.9 528.0 248.9L528.0 248.9Q527.5 248.9 527.0 249.1Q526.6 249.4 526.3 249.9Q526.0 250.4 526.0 251.0L526.0 251.0L526.0 256.5ZM538.5 250.9L543.6 250.9L543.6 252.1L538.5 252.1L538.5 250.9ZM548.5 256.7L548.5 256.7Q547.7 256.7 547.0 256.4Q546.3 256.1 545.9 255.5Q545.5 254.9 545.5 254.0L545.5 254.0Q545.5 253.3 545.8 252.8Q546.1 252.3 546.6 252.1Q547.1 251.8 547.7 251.7Q548.3 251.5 548.9 251.5L548.9 251.5Q549.7 251.4 550.2 251.3Q550.7 251.2 550.9 251.1Q551.2 251.0 551.2 250.7L551.2 250.7L551.2 250.6Q551.2 249.8 550.7 249.3Q550.2 248.8 549.3 248.8L549.3 248.8Q548.4 248.8 547.8 249.3Q547.3 249.7 547.0 250.2L547.0 250.2L545.8 249.7Q546.1 248.9 546.7 248.5Q547.3 248.0 547.9 247.8Q548.6 247.7 549.3 247.7L549.3 247.7Q549.7 247.7 550.2 247.8Q550.8 247.9 551.3 248.2Q551.8 248.5 552.2 249.1Q552.5 249.7 552.5 250.8L552.5 250.8L552.5 256.5L551.2 256.5L551.2 255.3L551.1 255.3Q551.0 255.6 550.6 255.9Q550.3 256.3 549.8 256.5Q549.3 256.7 548.5 256.7ZM548.7 255.5L548.7 255.5Q549.5 255.5 550.0 255.2Q550.6 254.9 550.9 254.4Q551.2 253.9 551.2 253.3L551.2 253.3L551.2 252.1Q551.1 252.2 550.8 252.3Q550.5 252.4 550.1 252.4Q549.8 252.5 549.4 252.5Q549.1 252.6 548.8 252.6L548.8 252.6Q548.3 252.7 547.9 252.8Q547.4 253.0 547.1 253.3Q546.9 253.6 546.9 254.1L546.9 254.1Q546.9 254.8 547.4 255.1Q547.9 255.5 548.7 255.5ZM556.3 259.8L555.0 259.8L555.0 247.8L556.3 247.8L556.3 249.2L556.4 249.2Q556.6 248.9 556.8 248.6Q557.1 248.2 557.6 247.9Q558.1 247.7 558.9 247.7L558.9 247.7Q560.0 247.7 560.9 248.2Q561.7 248.8 562.2 249.8Q562.7 250.8 562.7 252.2L562.7 252.2Q562.7 253.5 562.2 254.6Q561.7 255.6 560.9 256.1Q560.0 256.7 559.0 256.7L559.0 256.7Q558.1 256.7 557.6 256.4Q557.1 256.1 556.8 255.8Q556.6 255.4 556.4 255.2L556.4 255.2L556.3 255.2L556.3 259.8ZM556.3 252.1L556.3 252.1Q556.3 253.1 556.6 253.9Q556.9 254.6 557.4 255.1Q558.0 255.5 558.8 255.5L558.8 255.5Q559.6 255.5 560.2 255.0Q560.7 254.6 561.0 253.8Q561.3 253.1 561.3 252.1L561.3 252.1Q561.3 251.2 561.0 250.5Q560.8 249.7 560.2 249.3Q559.6 248.9 558.8 248.9L558.8 248.9Q558.0 248.9 557.4 249.3Q556.8 249.7 556.6 250.4Q556.3 251.2 556.3 252.1ZM566.0 256.5L564.7 256.5L564.7 247.8L566.0 247.8L566.0 256.5ZM565.4 246.3L565.4 246.3Q565.0 246.3 564.7 246.1Q564.4 245.8 564.4 245.4L564.4 245.4Q564.4 245.0 564.7 244.8Q565.0 244.5 565.4 244.5L565.4 244.5Q565.8 244.5 566.1 244.8Q566.3 245.0 566.3 245.4L566.3 245.4Q566.3 245.8 566.1 246.1Q565.8 246.3 565.4 246.3Z "/></svg>