<svg width="472" height="368" viewBox="0 0 472 368" fill="none" xmlns="http://www.w3.org/2000/svg">
<path d="M71.26 224.5L29.3 253.7L236.6 326.4L444 253.3L403 224.5C348.3 233.7 282.4 210.1 252.3 256.3H220.9C179.9 210.6 116.4 231.1 71.26 224.5ZM6.99999 265.8L0.829987 283.4L191.5 350.1V367.9H283.1V349.2C345.4 327.4 408.6 305.3 471.2 283.4L465 265.8L259.3 337.7L263.4 349.2H208.6L212.7 337.7C144.1 313.7 75.55 289.7 6.99999 265.8Z" fill="white"/>
<path d="M313.08 114.42C303.012 96.972 309.06 74.616 326.604 64.452L307.74 31.776C302.352 34.932 296.076 36.744 289.392 36.744C269.232 36.744 252.888 20.292 252.888 0H215.148C215.196 6.264 213.636 12.612 210.276 18.42C200.208 35.868 177.804 41.796 160.236 31.692L141.372 64.368C146.808 67.452 151.512 71.976 154.848 77.772C164.904 95.196 158.88 117.504 141.408 127.692L160.272 160.368C165.648 157.236 171.876 155.448 178.536 155.448C198.636 155.448 214.932 171.792 215.04 192H252.78C252.768 185.796 254.328 179.52 257.652 173.772C267.708 156.348 290.052 150.408 307.608 160.452L326.472 127.776C321.072 124.692 316.404 120.18 313.08 114.42ZM234 134.88C212.532 134.88 195.12 117.48 195.12 96C195.12 74.52 212.52 57.12 234 57.12C255.468 57.12 272.88 74.52 272.88 96C272.88 117.48 255.48 134.88 234 134.88Z" fill="white"/>
</svg>
