<svg width="512" height="512" viewBox="0 0 512 512" fill="none" xmlns="http://www.w3.org/2000/svg">
<g clip-path="url(#clip0_4_2)">
<g filter="url(#filter0_d_4_2)">
<path d="M0 128C0 57.3076 57.3076 0 128 0H384C454.692 0 512 57.3076 512 128V384C512 454.692 454.692 512 384 512H128C57.3076 512 0 454.692 0 384V128Z" fill="black"/>
<path d="M128 0.5H384C454.416 0.5 511.5 57.5837 511.5 128V384C511.5 454.416 454.416 511.5 384 511.5H128C57.5837 511.5 0.5 454.416 0.5 384V128C0.5 57.5837 57.5837 0.5 128 0.5Z" stroke="black"/>
</g>
<path d="M93.26 288.5L51.3 317.7L258.6 390.4L466 317.3L425 288.5C370.3 297.7 304.4 274.1 274.3 320.3H242.9C201.9 274.6 138.4 295.1 93.26 288.5ZM29 329.8L22.83 347.4L213.5 414.1V431.9H305.1V413.2C367.4 391.4 430.6 369.3 493.2 347.4L487 329.8L281.3 401.7L285.4 413.2H230.6L234.7 401.7C166.1 377.7 97.55 353.7 29 329.8Z" fill="white"/>
<path d="M335.08 178.42C325.012 160.972 331.06 138.616 348.604 128.452L329.74 95.776C324.352 98.932 318.076 100.744 311.392 100.744C291.232 100.744 274.888 84.292 274.888 64H237.148C237.196 70.264 235.636 76.612 232.276 82.42C222.208 99.868 199.804 105.796 182.236 95.692L163.372 128.368C168.808 131.452 173.512 135.976 176.848 141.772C186.904 159.196 180.88 181.504 163.408 191.692L182.272 224.368C187.648 221.236 193.876 219.448 200.536 219.448C220.636 219.448 236.932 235.792 237.04 256H274.78C274.768 249.796 276.328 243.52 279.652 237.772C289.708 220.348 312.052 214.408 329.608 224.452L348.472 191.776C343.072 188.692 338.404 184.18 335.08 178.42ZM256 198.88C234.532 198.88 217.12 181.48 217.12 160C217.12 138.52 234.52 121.12 256 121.12C277.468 121.12 294.88 138.52 294.88 160C294.88 181.48 277.48 198.88 256 198.88Z" fill="white"/>
</g>
<defs>
<filter id="filter0_d_4_2" x="-4" y="0" width="520" height="520" filterUnits="userSpaceOnUse" color-interpolation-filters="sRGB">
<feFlood flood-opacity="0" result="BackgroundImageFix"/>
<feColorMatrix in="SourceAlpha" type="matrix" values="0 0 0 0 0 0 0 0 0 0 0 0 0 0 0 0 0 0 127 0" result="hardAlpha"/>
<feOffset dy="4"/>
<feGaussianBlur stdDeviation="2"/>
<feComposite in2="hardAlpha" operator="out"/>
<feColorMatrix type="matrix" values="0 0 0 0 0 0 0 0 0 0 0 0 0 0 0 0 0 0 0.25 0"/>
<feBlend mode="normal" in2="BackgroundImageFix" result="effect1_dropShadow_4_2"/>
<feBlend mode="normal" in="SourceGraphic" in2="effect1_dropShadow_4_2" result="shape"/>
</filter>
<clipPath id="clip0_4_2">
<rect width="512" height="512" fill="white"/>
</clipPath>
</defs>
</svg>
